<svg width="41" height="41" viewBox="0 0 41 41" fill="none" xmlns="http://www.w3.org/2000/svg">
<path d="M37.1571 10.182C35.9319 10.7106 34.5986 11.0909 33.2253 11.2391C34.6511 10.392 35.7189 9.05373 36.2282 7.47539C34.8903 8.27133 33.4245 8.82945 31.896 9.125C31.2572 8.44204 30.4845 7.89797 29.6262 7.52667C28.7679 7.15538 27.8423 6.96483 26.9071 6.9669C23.1234 6.9669 20.0805 10.0339 20.0805 13.7976C20.0805 14.3261 20.1445 14.8546 20.2486 15.3631C14.5831 15.0668 9.53017 12.3602 6.17089 8.21612C5.55879 9.2616 5.23803 10.452 5.24198 11.6635C5.24198 14.0338 6.44716 16.1238 8.28495 17.353C7.20191 17.3104 6.14423 17.0127 5.19794 16.4842V16.5683C5.19794 19.8875 7.54423 22.6382 10.6713 23.2708C10.0841 23.4233 9.48015 23.5013 8.87353 23.503C8.42909 23.503 8.00868 23.459 7.58427 23.3989C8.44911 26.1056 10.9676 28.0715 13.9665 28.1356C11.6202 29.9734 8.68134 31.0544 5.49022 31.0544C4.91766 31.0544 4.38915 31.0344 3.84061 30.9703C6.86757 32.9122 10.4591 34.0333 14.3268 34.0333C26.8831 34.0333 33.7538 23.6312 33.7538 14.6024C33.7538 14.3061 33.7538 14.0098 33.7338 13.7135C35.0631 12.7405 36.2282 11.5354 37.1571 10.182Z" fill="#FA4A0C"/>
</svg>
