<svg width="41" height="41" viewBox="0 0 41 41" fill="none" xmlns="http://www.w3.org/2000/svg">
<path d="M35.2353 4.48438H5.76648C5.05779 4.48438 4.48523 5.05694 4.48523 5.76563V35.2344C4.48523 35.9431 5.05779 36.5156 5.76648 36.5156H35.2353C35.9439 36.5156 36.5165 35.9431 36.5165 35.2344V5.76563C36.5165 5.05694 35.9439 4.48438 35.2353 4.48438ZM31.5356 13.8335H28.9771C26.9712 13.8335 26.5828 14.7864 26.5828 16.1878V19.2748H31.3715L30.7469 24.1075H26.5828V36.5156H21.5899V24.1115H17.4139V19.2748H21.5899V15.7113C21.5899 11.5753 24.1164 9.3211 27.808 9.3211C29.5777 9.3211 31.0952 9.45323 31.5396 9.51329V13.8335H31.5356Z" fill="#FA4A0C"/>
</svg>
