<svg width="41" height="41" viewBox="0 0 41 41" fill="none" xmlns="http://www.w3.org/2000/svg">
<path d="M35.2365 4.48438H5.76771C5.05901 4.48438 4.48645 5.05694 4.48645 5.76563V35.2344C4.48645 35.9431 5.05901 36.5156 5.76771 36.5156H35.2365C35.9452 36.5156 36.5177 35.9431 36.5177 35.2344V5.76563C36.5177 5.05694 35.9452 4.48438 35.2365 4.48438ZM13.9877 31.779H9.23509V16.4921H13.9877V31.779ZM11.6134 14.4021C11.0686 14.4021 10.536 14.2405 10.083 13.9378C9.62998 13.6351 9.27691 13.2049 9.06841 12.7015C8.85991 12.1982 8.80536 11.6443 8.91165 11.11C9.01794 10.5756 9.2803 10.0848 9.66555 9.69951C10.0508 9.31426 10.5416 9.0519 11.076 8.94561C11.6104 8.83932 12.1642 8.89387 12.6676 9.10237C13.1709 9.31087 13.6012 9.66394 13.9039 10.1169C14.2065 10.57 14.3681 11.1025 14.3681 11.6474C14.3641 13.1689 13.1309 14.4021 11.6134 14.4021ZM31.7811 31.779H27.0325V24.3438C27.0325 22.57 27.0004 20.2918 24.5621 20.2918C22.0916 20.2918 21.7113 22.2217 21.7113 24.2156V31.779H16.9666V16.4921H21.5231V18.5821H21.5871C22.2198 17.381 23.7693 16.1117 26.0835 16.1117C30.8962 16.1117 31.7811 19.2788 31.7811 23.3948V31.779Z" fill="#FA4A0C"/>
</svg>
